<svg aria-hidden="true" style="position: absolute; width: 0; height: 0; overflow: hidden;" version="1.1" xmlns="http://www.w3.org/2000/svg" xmlns:xlink="http://www.w3.org/1999/xlink">
<defs>
<symbol id="icon-CE" viewBox="0 0 43 32">
<path fill="#fff" style="fill: var(--color1, #fff)" d="M16.762 31.095c-0.506 0.051-1.015 0.076-1.524 0.076-4.042 0-7.918-1.598-10.775-4.443s-4.463-6.704-4.463-10.727c0-4.024 1.605-7.882 4.463-10.727s6.734-4.443 10.775-4.443c0.509 0 1.018 0.025 1.524 0.076v4.551c-0.505-0.062-1.015-0.087-1.524-0.076-2.829 0-5.542 1.119-7.543 3.11s-3.124 4.693-3.124 7.509c0 2.817 1.124 5.518 3.124 7.509s4.714 3.11 7.543 3.11c0.509 0.011 1.018-0.014 1.524-0.076v4.551z"></path>
<path fill="#fff" style="fill: var(--color1, #fff)" d="M42.666 31.095c-0.506 0.051-1.015 0.076-1.524 0.076-4.041 0-7.917-1.598-10.775-4.443s-4.463-6.704-4.463-10.727 1.606-7.882 4.463-10.727c2.858-2.845 6.734-4.443 10.775-4.443 0.509 0 1.017 0.025 1.524 0.076v4.551c-0.505-0.062-1.015-0.087-1.524-0.076-2.432-0-4.791 0.827-6.686 2.345s-3.212 3.634-3.734 5.999h8.896v4.551h-8.896c0.521 2.365 1.839 4.482 3.734 5.999s4.254 2.345 6.686 2.345c0.509 0.011 1.018-0.014 1.524-0.076v4.551z"></path>
</symbol>
<symbol id="icon-EAC" viewBox="0 0 36 32">
<path fill="#fff" style="fill: var(--color1, #fff)" d="M8.021 0.62h-7.959v30.842h7.959v-3.98h-3.98v-9.949h3.98v-2.985h-3.98v-9.949h3.98v-3.98z"></path>
<path fill="#fff" style="fill: var(--color1, #fff)" d="M15.98 31.461v-13.928h3.98v13.928h3.98v-30.842h-11.939v30.842h3.98zM19.961 14.548h-3.98v-10.944h3.98v10.944z"></path>
<path fill="#fff" style="fill: var(--color1, #fff)" d="M35.879 0.62h-7.959v30.842h7.959v-3.98h-3.98v-22.883h3.98v-3.98z"></path>
</symbol>
<symbol id="icon-download" viewBox="0 0 32 32">
<path fill="#fff" style="fill: var(--color1, #fff)" d="M16.73 25.711l6.569-6.569c0.403-0.403 0.403-1.057 0-1.46s-1.057-0.403-1.46 0l-4.807 4.807v-21.456h-2.065v21.456l-4.807-4.807c-0.403-0.403-1.057-0.403-1.46 0s-0.403 1.057 0 1.46l6.569 6.569c0.403 0.403 1.057 0.403 1.46 0zM1.032 26.839v-8.594h2.065v8.594c0 1.14 0.924 2.065 2.065 2.065h21.677c1.14 0 2.065-0.924 2.065-2.065v-8.594h2.065v8.594c0 2.28-1.849 4.129-4.129 4.129h-21.677c-2.28 0-4.129-1.849-4.129-4.129z"></path>
<path fill="#fff" style="fill: var(--color1, #fff)" d="M23.299 17.681v0zM21.839 17.681v0zM17.032 22.489h-1.032v2.492l1.762-1.762-0.73-0.73zM17.032 1.032h1.032v-1.032h-1.032v1.032zM14.968 1.032v-1.032h-1.032v1.032h1.032zM14.968 22.489l-0.73 0.73 1.762 1.762v-2.492h-1.032zM10.16 17.681v0zM8.701 19.141v0zM15.27 25.711v0zM1.032 18.245v-1.032h-1.032v1.032h1.032zM3.097 18.245h1.032v-1.032h-1.032v1.032zM28.903 18.245v-1.032h-1.032v1.032h1.032zM30.968 18.245h1.032v-1.032h-1.032v1.032zM22.569 18.411l-6.569 6.569 1.46 1.46 6.569-6.569-1.46-1.46zM22.569 18.411v0l1.46 1.46c0.806-0.806 0.806-2.113 0-2.92l-1.46 1.46zM22.569 18.411v0l1.46-1.46c-0.806-0.806-2.113-0.806-2.92 0l1.46 1.46zM17.762 23.218l4.807-4.807-1.46-1.46-4.807 4.807 1.46 1.46zM16 1.032v21.456h2.065v-21.456h-2.065zM14.968 2.065h2.065v-2.065h-2.065v2.065zM16 22.489v-21.456h-2.065v21.456h2.065zM9.431 18.411l4.807 4.807 1.46-1.46-4.807-4.807-1.46 1.46zM9.431 18.411v0l1.46-1.46c-0.806-0.806-2.113-0.806-2.92 0l1.46 1.46zM9.431 18.411v0l-1.46-1.46c-0.806 0.806-0.806 2.113 0 2.92l1.46-1.46zM16 24.981l-6.569-6.569-1.46 1.46 6.569 6.569 1.46-1.46zM16 24.981l-1.46 1.46c0.806 0.806 2.113 0.806 2.92 0l-1.46-1.46zM-0 18.245v8.594h2.065v-8.594h-2.065zM3.097 17.213h-2.065v2.065h2.065v-2.065zM4.129 26.839v-8.594h-2.065v8.594h2.065zM5.161 27.871c-0.57 0-1.032-0.462-1.032-1.032h-2.065c0 1.71 1.386 3.097 3.097 3.097v-2.065zM26.838 27.871h-21.677v2.065h21.677v-2.065zM27.871 26.839c0 0.57-0.462 1.032-1.032 1.032v2.065c1.71 0 3.097-1.386 3.097-3.097h-2.065zM27.871 18.245v8.594h2.065v-8.594h-2.065zM30.968 17.213h-2.065v2.065h2.065v-2.065zM32 26.839v-8.594h-2.065v8.594h2.065zM26.838 32c2.85 0 5.161-2.311 5.161-5.161h-2.065c0 1.71-1.387 3.097-3.097 3.097v2.065zM5.161 32h21.677v-2.065h-21.677v2.065zM-0 26.839c0 2.85 2.311 5.161 5.161 5.161v-2.065c-1.71 0-3.097-1.386-3.097-3.097h-2.065z"></path>
</symbol>
</defs>
</svg>
